<svg width="18" height="30" viewBox="0 0 18 30" fill="none" xmlns="http://www.w3.org/2000/svg">
    <path d="M7.01152 15.708C6.9184 15.6151 6.84451 15.5047 6.7941 15.3833C6.74369 15.2618 6.71774 15.1315 6.71774 15C6.71774 14.8685 6.74369 14.7382 6.7941 14.6167C6.84451 14.4953 6.9184 14.3849 7.01152 14.292L16.1834 5.12217C16.7461 4.55965 17.0624 3.79661 17.0626 3.00091C17.0628 2.20521 16.7469 1.44202 16.1844 0.879239C15.6218 0.316459 14.8588 0.000187623 14.0631 8.34508e-08C13.2674 -0.000187456 12.5042 0.315725 11.9414 0.878239L2.7696 10.0501C1.45916 11.3641 0.723267 13.1442 0.723267 15C0.723267 16.8558 1.45916 18.6359 2.7696 19.9499L11.9414 29.1218C12.5042 29.6843 13.2674 30.0002 14.0631 30C14.8588 29.9998 15.6218 29.6835 16.1844 29.1208C16.7469 28.558 17.0628 27.7948 17.0626 26.9991C17.0624 26.2034 16.7461 25.4403 16.1834 24.8778L7.01152 15.708Z"
          fill="black"/>
</svg>
