<svg width="31" height="26" viewBox="0 0 31 26" fill="none" xmlns="http://www.w3.org/2000/svg">
    <path d="M26.1456 14.8097V20.6818C26.1456 22.1468 25.6254 23.3994 24.5852 24.4396C23.5449 25.4799 22.2923 26 20.8274 26H5.4637C3.99874 26 2.74613 25.4799 1.70588 24.4396C0.665632 23.3994 0.145508 22.1468 0.145508 20.6818V5.31818C0.145508 3.85322 0.665632 2.60062 1.70588 1.56037C2.74613 0.520123 3.99874 0 5.4637 0H20.8274C21.6029 0 22.3231 0.153883 22.9879 0.461648C23.1725 0.547822 23.2833 0.689394 23.3203 0.886364C23.3572 1.09564 23.3018 1.27415 23.1541 1.42188L22.2492 2.3267C22.1261 2.44981 21.9846 2.51136 21.8245 2.51136C21.7876 2.51136 21.7322 2.49905 21.6583 2.47443C21.3752 2.40057 21.0982 2.36364 20.8274 2.36364H5.4637C4.6512 2.36364 3.95565 2.65294 3.37705 3.23153C2.79845 3.81013 2.50915 4.50568 2.50915 5.31818V20.6818C2.50915 21.4943 2.79845 22.1899 3.37705 22.7685C3.95565 23.3471 4.6512 23.6364 5.4637 23.6364H20.8274C21.6399 23.6364 22.3354 23.3471 22.914 22.7685C23.4926 22.1899 23.7819 21.4943 23.7819 20.6818V15.9915C23.7819 15.8314 23.8373 15.696 23.9481 15.5852L25.1299 14.4034C25.253 14.2803 25.3946 14.2188 25.5547 14.2188C25.6285 14.2188 25.7024 14.2372 25.7762 14.2741C26.0225 14.3726 26.1456 14.5511 26.1456 14.8097ZM30.4112 5.77983L15.3799 20.8111C15.0845 21.1065 14.7336 21.2543 14.3274 21.2543C13.9211 21.2543 13.5703 21.1065 13.2748 20.8111L5.33444 12.8707C5.03898 12.5753 4.89126 12.2244 4.89126 11.8182C4.89126 11.4119 5.03898 11.0611 5.33444 10.7656L7.36569 8.73438C7.66115 8.43892 8.012 8.29119 8.41825 8.29119C8.8245 8.29119 9.17536 8.43892 9.47081 8.73438L14.3274 13.5909L26.2748 1.64347C26.5703 1.34801 26.9211 1.20028 27.3274 1.20028C27.7336 1.20028 28.0845 1.34801 28.3799 1.64347L30.4112 3.67472C30.7067 3.97017 30.8544 4.32102 30.8544 4.72727C30.8544 5.13352 30.7067 5.48438 30.4112 5.77983Z"
          fill="black"/>
</svg>
