<svg width="30" height="30" viewBox="0 0 30 30" fill="none" xmlns="http://www.w3.org/2000/svg">
    <path fill-rule="evenodd" clip-rule="evenodd"
          d="M27.8663 11.5901C28.1008 11.3557 28.4187 11.224 28.7502 11.224C29.0817 11.224 29.3997 11.3557 29.6341 11.5901C29.8685 11.8245 30.0002 12.1425 30.0002 12.474V20.429C30.0022 21.25 29.8414 22.0633 29.5271 22.8217C29.2128 23.5802 28.7512 24.2688 28.169 24.8477L24.849 28.1702C24.2698 28.7523 23.581 29.2138 22.8223 29.5279C22.0636 29.842 21.2501 30.0026 20.429 30.0002H6.25024C4.59325 29.9982 3.00469 29.3391 1.83302 28.1674C0.661346 26.9958 0.00222896 25.4072 0.000244141 23.7502V6.25024C0.00222896 4.59325 0.661346 3.00469 1.83302 1.83302C3.00469 0.661346 4.59325 0.00222896 6.25024 0.000244141H17.5527C17.8843 0.000244141 18.2022 0.13194 18.4366 0.36636C18.671 0.600781 18.8027 0.918723 18.8027 1.25024C18.8027 1.58176 18.671 1.89971 18.4366 2.13413C18.2022 2.36855 17.8843 2.50024 17.5527 2.50024H6.25024C5.25568 2.50024 4.30185 2.89533 3.59859 3.59859C2.89533 4.30185 2.50024 5.25568 2.50024 6.25024V23.7502C2.50024 24.7448 2.89533 25.6986 3.59859 26.4019C4.30185 27.1051 5.25568 27.5002 6.25024 27.5002H18.7502V22.5002C18.7502 21.5057 19.1453 20.5518 19.8486 19.8486C20.5518 19.1453 21.5057 18.7502 22.5002 18.7502H27.5002V12.474C27.5002 12.1425 27.6319 11.8245 27.8663 11.5901ZM21.2502 27.4027C21.9436 27.251 22.579 26.904 23.0815 26.4027L26.4065 23.0802C26.9052 22.5764 27.2518 21.9421 27.4065 21.2502H22.5002C22.1687 21.2502 21.8508 21.3819 21.6163 21.6163C21.3819 21.8508 21.2502 22.1687 21.2502 22.5002V27.4027ZM8.08024 16.4027L23.3202 1.16273C24.0631 0.452596 25.0513 0.0562915 26.079 0.0562915C27.1067 0.0562915 28.0948 0.452596 28.8377 1.16273C29.5682 1.89501 29.9785 2.88713 29.9785 3.92148C29.9785 4.95582 29.5682 5.94794 28.8377 6.68022L13.5977 21.9202C13.0188 22.5023 12.3302 22.9637 11.5717 23.2779C10.8132 23.592 9.99994 23.7525 9.17899 23.7502H7.50024C7.16872 23.7502 6.85078 23.6185 6.61636 23.3841C6.38194 23.1497 6.25024 22.8317 6.25024 22.5002V20.8215C6.24792 20.0005 6.40847 19.1872 6.72259 18.4288C7.03671 17.6703 7.49817 16.9816 8.08024 16.4027ZM11.8302 20.1527L27.0702 4.91272C27.3327 4.64958 27.48 4.29311 27.48 3.92148C27.48 3.54984 27.3327 3.19337 27.0702 2.93023C26.8032 2.67517 26.4482 2.53284 26.079 2.53284C25.7097 2.53284 25.3547 2.67517 25.0877 2.93023L9.84774 18.1702C9.1472 18.8751 8.75284 19.8277 8.75024 20.8215V21.2502H9.17899C10.1727 21.2476 11.1254 20.8532 11.8302 20.1527Z"
          fill="black"/>
</svg>
