<svg width="18" height="31" viewBox="0 0 18 31" fill="none" xmlns="http://www.w3.org/2000/svg">
    <path d="M15.268 10.0528L6.09614 0.880925C5.53336 0.31841 4.77017 0.0024981 3.97447 0.00268563C3.17877 0.00287316 2.41573 0.319144 1.85321 0.881924C1.2907 1.4447 0.974788 2.20789 0.974976 3.00359C0.975163 3.7993 1.29144 4.56234 1.85421 5.12485L11.026 14.2947C11.1192 14.3876 11.1931 14.4979 11.2435 14.6194C11.2939 14.7409 11.3198 14.8712 11.3198 15.0027C11.3198 15.1342 11.2939 15.2645 11.2435 15.3859C11.1931 15.5074 11.1192 15.6178 11.026 15.7107L1.85421 24.8805C1.29144 25.443 0.975163 26.2061 0.974976 27.0018C0.974788 27.7975 1.2907 28.5607 1.85321 29.1234C2.41573 29.6862 3.17877 30.0025 3.97447 30.0027C4.77017 30.0029 5.53336 29.687 6.09614 29.1244L15.268 19.9526C16.5784 18.6386 17.3143 16.8585 17.3143 15.0027C17.3143 13.1469 16.5784 11.3668 15.268 10.0528Z"
          fill="black"/>
</svg>
