<svg width="64" height="97" viewBox="0 0 64 97" fill="none" xmlns="http://www.w3.org/2000/svg">
    <path d="M40.3779 0L31.3934 4.94483L22.1565 0.511109L17.2732 9.52633L7.10016 10.7764L7.88223 20.9986L0 27.5568L6.2011 35.7407L3.10979 45.5195L12.7286 49.0541L15.4258 58.9561L19.7056 57.9893V96.1932L32.0216 79.7761L44.3375 96.1932V56.9794L50.3724 57.9647L50.9882 55.1074L52.503 47.9519L61.9248 43.8876L58.2915 34.2813L64 25.7833L55.7606 19.6746L55.9823 9.41549L45.7416 8.73812L40.3779 0ZM38.2103 8.23317L42.1514 14.6682L49.695 15.1732L49.541 22.7166L55.6128 27.2119L51.3884 33.493L54.0733 40.55L47.1333 43.5613L45.5568 50.9323L38.1118 49.7192L32.7975 55.0766L27.1937 50.0148L19.8164 51.6528L17.8397 44.368L10.758 41.7693L13.0303 34.5645L8.4734 28.5359L14.2804 23.7019L13.7015 16.1707L21.2143 15.2471L24.7921 8.6088L31.6028 11.8787L38.2103 8.23317ZM32.0154 16.14C27.9364 16.153 24.0282 17.7791 21.1439 20.6634C18.2595 23.5476 16.6334 27.4558 16.6204 31.5348C16.6204 39.9958 23.5482 46.9297 32.0154 46.9297C40.4826 46.9297 47.4104 39.9958 47.4104 31.5348C47.4104 23.0676 40.4826 16.14 32.0154 16.14ZM32.0154 22.2979C37.1512 22.2979 41.2524 26.3929 41.2524 31.5348C41.2524 36.6705 37.1512 40.7717 32.0154 40.7717C26.8796 40.7717 22.7784 36.6705 22.7784 31.5348C22.7784 26.3929 26.8796 22.2979 32.0154 22.2979ZM25.8574 57.1149L33.0376 63.5992L38.1734 58.4019V77.707L32.0154 69.5047L25.8574 77.7194V57.1149Z"
          fill="black"/>
</svg>
