<svg width="34" height="32" viewBox="0 0 34 32" fill="none" xmlns="http://www.w3.org/2000/svg">
    <path d="M6.4488 9.71355C5.80832 9.71535 5.17385 9.59009 4.58211 9.34503C3.99037 9.09996 3.45311 8.73996 3.00144 8.28585L0.877314 6.39852C0.463572 6.0291 0.213524 5.51046 0.182178 4.95669C0.166658 4.68249 0.205297 4.40792 0.295889 4.14865C0.386482 3.88938 0.527255 3.65049 0.710169 3.44563C0.893084 3.24077 1.11456 3.07394 1.36195 2.95466C1.60934 2.83539 1.8778 2.76602 2.152 2.75049C2.70577 2.71915 3.24931 2.90907 3.66306 3.27849L5.86936 5.248C5.9412 5.3329 6.02969 5.40216 6.12935 5.45152C6.22901 5.50087 6.33773 5.52926 6.4488 5.53494C6.63315 5.5349 6.80996 5.46177 6.94048 5.33158L11.9729 0.540102C12.377 0.174469 12.9079 -0.0188243 13.4525 0.00144763C13.9971 0.0217196 14.5121 0.253952 14.8879 0.648615C15.2637 1.04328 15.4704 1.56914 15.4639 2.11404C15.4575 2.65894 15.2384 3.17976 14.8534 3.56542L9.85855 8.32068C9.40977 8.76573 8.87757 9.11786 8.29247 9.35688C7.70736 9.59589 7.08083 9.7171 6.4488 9.71355ZM33.6098 4.8385C33.6098 4.28438 33.3897 3.75296 32.9978 3.36114C32.606 2.96932 32.0746 2.74919 31.5205 2.74919H20.3775C19.8234 2.74919 19.292 2.96932 18.9001 3.36114C18.5083 3.75296 18.2882 4.28438 18.2882 4.8385C18.2882 5.39262 18.5083 5.92404 18.9001 6.31586C19.292 6.70768 19.8234 6.92781 20.3775 6.92781H31.5205C32.0746 6.92781 32.606 6.70768 32.9978 6.31586C33.3897 5.92404 33.6098 5.39262 33.6098 4.8385ZM9.85855 19.4636L14.8534 14.7084C15.2384 14.3227 15.4575 13.8019 15.4639 13.257C15.4704 12.7121 15.2637 12.1862 14.8879 11.7916C14.5121 11.3969 13.9971 11.1647 13.4525 11.1444C12.9079 11.1241 12.377 11.3174 11.9729 11.6831L6.94048 16.4745C6.80988 16.6051 6.63277 16.6784 6.4481 16.6784C6.26343 16.6784 6.08632 16.6051 5.95572 16.4745L3.74802 14.2654C3.35608 13.8735 2.82448 13.6533 2.27019 13.6533C1.71589 13.6533 1.1843 13.8735 0.792349 14.2654C0.400402 14.6574 0.180209 15.189 0.180209 15.7433C0.180209 16.2976 0.400402 16.8292 0.792349 17.2211L3.00144 19.4288C3.90954 20.3364 5.13899 20.8491 6.42284 20.8556C7.70669 20.8621 8.94128 20.3619 9.85855 19.4636ZM33.6098 15.9815C33.6098 15.4273 33.3897 14.8959 32.9978 14.5041C32.606 14.1123 32.0746 13.8922 31.5205 13.8922H20.3775C19.8234 13.8922 19.292 14.1123 18.9001 14.5041C18.5083 14.8959 18.2882 15.4273 18.2882 15.9815C18.2882 16.5356 18.5083 17.067 18.9001 17.4588C19.292 17.8506 19.8234 18.0708 20.3775 18.0708H31.5205C32.0746 18.0708 32.606 17.8506 32.9978 17.4588C33.3897 17.067 33.6098 16.5356 33.6098 15.9815ZM9.85855 30.6066L14.8534 25.8513C15.2384 25.4657 15.4575 24.9449 15.4639 24.4C15.4704 23.8551 15.2637 23.3292 14.8879 22.9345C14.5121 22.5399 13.9971 22.3076 13.4525 22.2874C12.9079 22.2671 12.377 22.4604 11.9729 22.826L6.94048 27.6175C6.80996 27.7477 6.63315 27.8208 6.4488 27.8209C6.33773 27.8152 6.22901 27.7868 6.12935 27.7374C6.02969 27.6881 5.9412 27.6188 5.86936 27.5339L3.66306 25.5644C3.24931 25.195 2.70577 25.0051 2.152 25.0364C1.59822 25.0678 1.07958 25.3178 0.710169 25.7316C0.340757 26.1453 0.150833 26.6888 0.182178 27.2426C0.213524 27.7964 0.463572 28.315 0.877314 28.6844L2.99866 30.5718C3.90687 31.4802 5.13692 31.9934 6.42144 31.9999C7.70597 32.0065 8.94116 31.5057 9.85855 30.6066ZM33.6098 27.1244C33.6098 26.5703 33.3897 26.0389 32.9978 25.6471C32.606 25.2552 32.0746 25.0351 31.5205 25.0351H20.3775C19.8234 25.0351 19.292 25.2552 18.9001 25.6471C18.5083 26.0389 18.2882 26.5703 18.2882 27.1244C18.2882 27.6785 18.5083 28.21 18.9001 28.6018C19.292 28.9936 19.8234 29.2137 20.3775 29.2137H31.5205C32.0746 29.2137 32.606 28.9936 32.9978 28.6018C33.3897 28.21 33.6098 27.6785 33.6098 27.1244Z"
          fill="black"/>
</svg>
