<svg width="64" height="92" viewBox="0 0 64 92" fill="none" xmlns="http://www.w3.org/2000/svg">
    <path fill-rule="evenodd" clip-rule="evenodd"
          d="M63.5815 30.7599L59.055 24.766L59.9851 17.3047C60.1091 16.3746 59.5924 15.4859 58.7244 15.1139L51.8004 12.1996L48.8862 5.27564C48.5141 4.40757 47.6254 3.89085 46.6953 4.01487L39.2546 4.94495L33.2608 0.418545C32.8966 0.146807 32.4544 0 32 0C31.5456 0 31.1034 0.146807 30.7392 0.418545L24.7454 4.94495L17.3047 4.01487C16.3746 3.89085 15.4859 4.40757 15.1138 5.27564L12.1996 12.1996L5.27564 15.1139C4.40756 15.4859 3.89085 16.3746 4.01486 17.3047L4.94494 24.766L0.418545 30.7599C0.146806 31.1241 0 31.5663 0 32.0207C0 32.4751 0.146806 32.9173 0.418545 33.2815L4.94494 39.2753L4.01486 46.716C3.89085 47.6461 4.40756 48.5348 5.27564 48.9069L12.1996 51.8211L15.1138 58.7451C15.4859 59.6131 16.3746 60.1298 17.3047 60.0058H17.346L9.78137 88.7557C9.57469 89.5825 9.86405 90.4506 10.5668 90.9673C10.9388 91.236 11.3728 91.3806 11.8069 91.3806C12.1789 91.3806 12.5716 91.2773 12.9023 91.0706L32 79.2482L51.0977 91.0706C51.8211 91.5253 52.7512 91.484 53.4332 90.9673C54.1153 90.4506 54.4253 89.5825 54.2186 88.7557L46.654 60.0058H46.6953C47.6254 60.1298 48.5141 59.6131 48.8862 58.7451L51.8004 51.8211L58.7244 48.9069C59.5924 48.5348 60.1091 47.6461 59.9851 46.716L59.055 39.2753L63.5815 33.2815C64.1395 32.5374 64.1395 31.504 63.5815 30.7599ZM48.8655 84.7254L33.1161 74.9698C32.434 74.5565 31.5866 74.5565 30.9252 74.9698L15.1758 84.7254L21.8311 59.4065L24.7867 59.0344L30.7806 63.5608C31.1526 63.8502 31.5866 63.9742 32.0413 63.9742C32.496 63.9742 32.9301 63.8295 33.3021 63.5608L39.296 59.0344L42.2516 59.4065L48.8655 84.7254ZM55.2107 37.4152C54.88 37.8492 54.7353 38.3866 54.7973 38.924L55.6447 45.6412L49.4029 48.2661C48.9068 48.4728 48.4935 48.8862 48.2868 49.3822L45.6619 55.6448L38.9446 54.7974C38.4072 54.7147 37.8699 54.8801 37.4358 55.2108L32.0207 59.3031L26.6055 55.2108C26.2335 54.9421 25.7994 54.7974 25.3447 54.7974H25.3447C25.262 54.7974 25.1794 54.7974 25.0761 54.818L18.3588 55.6655L15.7546 49.4029C15.5479 48.9069 15.1345 48.4935 14.6385 48.2868L8.39658 45.6619L9.24399 38.9446C9.306 38.4073 9.16132 37.8699 8.83062 37.4358L4.73826 32.0207L8.83062 26.6055C9.16132 26.1715 9.306 25.6341 9.24399 25.0967L8.39658 18.3795L14.6385 15.7546C15.1345 15.5479 15.5479 15.1345 15.7546 14.6385L18.3795 8.37592L25.0967 9.22333C25.6341 9.28533 26.1715 9.14065 26.6055 8.80996L32.0207 4.71759L37.4358 8.80996C37.8699 9.14065 38.4072 9.28533 38.9446 9.22333L45.6619 8.37592L48.2868 14.6178C48.4935 15.1139 48.9068 15.5272 49.4029 15.7339L55.6447 18.3588L54.7973 25.0761C54.7353 25.6135 54.88 26.1508 55.2107 26.5849L59.3031 32L55.2107 37.4152ZM32.0209 12.0136C20.9839 12.0136 12.0138 20.9837 12.0138 32.0207C12.0138 43.0577 20.9839 52.0278 32.0209 52.0278C43.0579 52.0278 52.028 43.0577 52.028 32.0207C52.028 20.9837 43.0579 12.0136 32.0209 12.0136ZM32.0209 47.8528C23.2988 47.8528 16.1888 40.7428 16.1888 32.0207C16.1888 23.2986 23.2988 16.1886 32.0209 16.1886C40.743 16.1886 47.853 23.2986 47.853 32.0207C47.853 40.7428 40.743 47.8528 32.0209 47.8528ZM29.189 35.1623L39.8953 24.456C40.7013 23.6293 42.0241 23.6293 42.8095 24.456C43.6156 25.2828 43.6156 26.6055 42.8095 27.4116L30.6358 39.5854C30.2431 39.9987 29.7057 40.2054 29.1683 40.2054C28.6516 40.2054 28.1142 39.9987 27.7009 39.5854L21.1903 33.0748C20.3842 32.248 20.3842 30.9253 21.1903 30.1192C22.017 29.3131 23.3398 29.3131 24.1459 30.1192L29.189 35.1623Z"
          fill="black"/>
</svg>
