<svg width="30" height="30" viewBox="0 0 30 30" fill="none" xmlns="http://www.w3.org/2000/svg">
    <path d="M21.25 15C21.25 15.6912 20.69 16.25 20 16.25H16.25V20C16.25 20.6912 15.69 21.25 15 21.25C14.31 21.25 13.75 20.6912 13.75 20V16.25H10C9.31 16.25 8.75 15.6912 8.75 15C8.75 14.3088 9.31 13.75 10 13.75H13.75V10C13.75 9.30875 14.31 8.75 15 8.75C15.69 8.75 16.25 9.30875 16.25 10V13.75H20C20.69 13.75 21.25 14.3088 21.25 15ZM30 6.25V23.75C30 27.1962 27.1962 30 23.75 30H6.25C2.80375 30 0 27.1962 0 23.75V6.25C0 2.80375 2.80375 0 6.25 0H23.75C27.1962 0 30 2.80375 30 6.25ZM27.5 6.25C27.5 4.1825 25.8175 2.5 23.75 2.5H6.25C4.1825 2.5 2.5 4.1825 2.5 6.25V23.75C2.5 25.8175 4.1825 27.5 6.25 27.5H23.75C25.8175 27.5 27.5 25.8175 27.5 23.75V6.25Z"
          fill="black"/>
</svg>
