<svg width="25" height="26" viewBox="0 0 25 26" fill="none" xmlns="http://www.w3.org/2000/svg">
    <path fill-rule="evenodd" clip-rule="evenodd"
          d="M24.6666 4.875C24.6666 3.97754 23.939 3.25 23.0416 3.25H18.9509C18.2664 1.30797 16.434 0.00660156 14.3749 0H11.1249C9.06579 0.00660156 7.23346 1.30797 6.54893 3.25H2.45825C1.56079 3.25 0.833252 3.97754 0.833252 4.875C0.833252 5.77246 1.56079 6.5 2.45825 6.5H2.99993V20.0417C2.99993 23.3324 5.66757 26 8.95824 26H16.5415C19.8323 26 22.4999 23.3324 22.4999 20.0417V6.5H23.0416C23.939 6.5 24.6666 5.77246 24.6666 4.875ZM19.2499 20.0417C19.2499 21.5374 18.0374 22.75 16.5416 22.75H8.95824C7.46248 22.75 6.24993 21.5374 6.24993 20.0417V6.5H19.2499V20.0417ZM10.0416 19.5C10.9391 19.5 11.6666 18.7725 11.6666 17.875V11.375C11.6666 10.4775 10.9391 9.75 10.0416 9.75C9.14415 9.75 8.41661 10.4775 8.41661 11.375V17.875C8.41661 18.7725 9.14415 19.5 10.0416 19.5ZM17.0832 17.875C17.0832 18.7725 16.3557 19.5 15.4582 19.5C14.5608 19.5 13.8332 18.7725 13.8332 17.875V11.375C13.8332 10.4775 14.5608 9.75 15.4582 9.75C16.3557 9.75 17.0832 10.4775 17.0832 11.375V17.875Z"
          fill="black"/>
</svg>
