<svg width="64" height="73" viewBox="0 0 64 73" fill="none" xmlns="http://www.w3.org/2000/svg">
    <path d="M26.4542 0.0339921C26.0168 0.111176 25.8496 0.273264 25.6489 0.435351C25.4482 0.597438 25.209 0.787826 25.0057 0.998797C24.6043 1.42331 24.2339 1.93016 23.799 2.44729C23.3694 2.96185 22.9372 3.51244 22.595 3.89321C22.4226 4.0836 22.2193 4.1968 22.1113 4.29457L22.0315 4.37433C21.8874 4.37433 21.6404 4.32802 21.3883 4.29714C20.884 4.22511 20.2794 4.09132 19.6182 3.97297C18.9596 3.85719 18.27 3.79545 17.6886 3.73113C17.4004 3.70282 17.1431 3.64622 16.8859 3.65394C16.5738 3.64537 16.2661 3.72857 16.0008 3.89321C15.7278 4.03967 15.5041 4.2634 15.3576 4.53642C15.2264 4.75768 15.1518 4.9918 15.036 5.25938C14.7765 5.8686 14.5354 6.4855 14.313 7.10923C14.0815 7.74471 13.8628 8.31845 13.6698 8.797C13.5721 9.03627 13.4975 9.22923 13.428 9.36044C13.4074 9.39903 13.3637 9.41704 13.3482 9.4402C13.2119 9.48394 12.9546 9.54311 12.705 9.60229C12.2059 9.71292 11.5936 9.80554 10.9349 9.92389C10.2788 10.0422 9.57132 10.1837 9.0053 10.3252C8.72229 10.3947 8.52418 10.4719 8.28491 10.5671C8.04306 10.6623 7.76005 10.7112 7.47961 11.0482C7.1966 11.3878 7.20689 11.6785 7.15801 11.9333C7.10655 12.188 7.09626 12.4452 7.07568 12.7385C7.03709 13.3226 6.9985 13.9915 6.9985 14.6682C6.99592 15.3422 7.01651 16.0009 6.9985 16.5154C6.98563 16.7727 6.93675 17.0146 6.91617 17.1586C6.89816 17.1664 6.89301 17.1947 6.83641 17.2384C6.72063 17.331 6.56883 17.5034 6.35272 17.6423C5.92306 17.9176 5.32359 18.2675 4.7447 18.6071C4.16581 18.9467 3.62038 19.2426 3.13668 19.5719C2.89484 19.7366 2.68901 19.8807 2.49348 20.0531C2.30052 20.2254 2.08183 20.3644 1.9326 20.776C1.81746 21.0562 1.78879 21.3644 1.85027 21.6611C1.89144 21.9183 2.01236 22.1833 2.09212 22.4664C2.2542 23.0298 2.42658 23.6807 2.65557 24.3162C2.88197 24.9491 3.1444 25.5923 3.29877 26.0837C3.37596 26.3281 3.42741 26.5829 3.45829 26.7269C3.45057 26.7527 3.49688 26.7527 3.45829 26.8067C3.3811 26.9302 3.21387 27.1669 3.05693 27.3701C2.74561 27.7792 2.35969 28.2192 1.93003 28.7363C1.50294 29.256 1.06813 29.7912 0.725947 30.2646C0.553567 30.5012 0.36575 30.7611 0.242255 30.9875C0.0773989 31.2528 -0.00663733 31.5603 0.00040949 31.8726C0.00040949 32.3099 0.118759 32.4489 0.242255 32.6778C0.36575 32.9017 0.553567 33.1615 0.725947 33.3982C1.06813 33.8742 1.50294 34.4094 1.9326 34.9291C2.35969 35.4462 2.74561 35.9659 3.05693 36.375C3.2113 36.5782 3.3811 36.7352 3.45829 36.8587C3.48402 36.8947 3.52518 36.9101 3.54062 36.9359C3.53033 36.9693 3.46858 36.9745 3.45829 37.0182C3.41347 37.2083 3.36024 37.3963 3.29877 37.5816C3.1444 38.0705 2.88197 38.7137 2.65557 39.3492C2.42658 39.9846 2.2542 40.6356 2.09212 41.199C2.01236 41.482 1.89144 41.747 1.85027 42.0043C1.78931 42.3001 1.81798 42.6074 1.9326 42.8868C2.07925 43.2984 2.30052 43.4399 2.49348 43.6123C2.68901 43.7847 2.89484 43.9288 3.13668 44.0934C3.62038 44.4202 4.16581 44.7984 4.7447 45.138C5.32359 45.4776 5.92306 45.7477 6.35272 46.023C6.56883 46.162 6.72063 46.3343 6.83641 46.4244C6.89301 46.4707 6.89816 46.5788 6.91617 46.5865C6.93932 46.7331 6.98821 46.9209 6.99592 47.1474C7.01651 47.6645 6.99592 48.3231 6.99592 48.9998C6.99592 49.6739 7.03709 50.3428 7.07825 50.9294C7.09626 51.2201 7.10655 51.4774 7.15544 51.7321C7.20689 51.9868 7.1966 52.2775 7.47961 52.6146C7.76262 52.9542 8.04306 53.0031 8.28234 53.0983C8.52418 53.1935 8.72486 53.2681 9.00787 53.3401C9.5739 53.4816 10.2788 53.6231 10.9375 53.7415C11.5936 53.8598 12.2059 53.9524 12.705 54.0631C12.9546 54.1171 13.2119 54.1789 13.3482 54.2252C13.374 54.2329 13.4074 54.2149 13.428 54.2252C13.4434 54.2457 13.4126 54.2715 13.428 54.3023C13.4975 54.431 13.5721 54.6291 13.6698 54.8684C13.8293 55.262 14.0455 55.7894 14.2333 56.3143L8.84579 65.9623C8.38525 66.8345 9.33462 68.0463 10.2943 67.8122L16.0831 66.2839L17.6088 72.0728C17.8635 73.0967 19.5719 73.2666 20.0221 72.3146L25.2475 62.8261C25.3916 62.9547 25.5151 63.1194 25.6489 63.23C25.8496 63.3921 26.0168 63.5516 26.4542 63.6314C26.8916 63.7086 27.0923 63.6314 27.3393 63.549C27.5837 63.4641 27.8024 63.3561 28.0596 63.2274C28.5845 62.9702 29.1711 62.5997 29.75 62.2626C30.3289 61.9282 30.9078 61.6194 31.358 61.3802C31.5844 61.2592 31.7877 61.1949 31.9215 61.1383C31.9472 61.1512 32.0141 61.1126 32.081 61.1383C32.2148 61.1949 32.418 61.2592 32.6444 61.3802C33.0972 61.6194 33.6736 61.9282 34.2524 62.2626C34.8339 62.5997 35.4179 62.9702 35.9402 63.2274C36.2026 63.3561 36.4188 63.4641 36.6657 63.549C36.9102 63.6339 37.1108 63.7111 37.5482 63.6314C37.8165 63.5982 38.069 63.4863 38.2738 63.3098C38.3252 63.266 38.3793 63.2017 38.4333 63.1477L43.6587 72.3146C44.1089 73.2666 45.8199 73.0967 46.072 72.0728L47.5977 66.2839L53.3865 67.8122C54.3436 68.0489 55.2956 66.8345 54.835 65.9623L49.6096 56.7954C49.6302 56.7388 49.6688 56.6951 49.6894 56.6359C49.921 56.003 50.1396 55.3443 50.3326 54.8658C50.4304 54.6265 50.505 54.4336 50.5744 54.3049C50.559 54.2689 50.6259 54.2509 50.6542 54.2226C50.7906 54.1789 51.0479 54.1171 51.2974 54.0631C51.7965 53.9524 52.4089 53.8598 53.0675 53.7415C53.7236 53.6231 54.4311 53.479 54.9971 53.3401C55.2801 53.2706 55.4783 53.1935 55.7175 53.0983C55.9594 53.0031 56.2424 52.9542 56.5228 52.6146C56.8058 52.2775 56.7955 51.9868 56.8444 51.7321C56.8959 51.4748 56.9062 51.2201 56.9268 50.9268C56.9653 50.3428 57.0039 49.6739 57.0039 48.9972C57.0065 48.3231 56.9859 47.6645 57.0039 47.1499C57.0142 46.9235 57.0631 46.7331 57.0863 46.5839C57.0786 46.5891 57.0811 46.5196 57.0863 46.5067C57.1069 46.4887 57.1326 46.4527 57.166 46.4244C57.2818 46.3343 57.4336 46.162 57.6497 46.023C58.0794 45.7477 58.6789 45.4776 59.2577 45.138C59.834 44.7984 60.3821 44.4202 60.8658 44.0934C61.1076 43.9288 61.3134 43.7847 61.509 43.6097C61.7019 43.4374 61.9206 43.301 62.0698 42.8893C62.2191 42.4751 62.111 42.259 62.0698 42.0017C62.0312 41.7444 61.9927 41.4794 61.9103 41.199C61.7482 40.633 61.4935 39.9846 61.2671 39.3492C61.0407 38.7162 60.8606 38.073 60.7037 37.5816C60.6424 37.3962 60.5892 37.2082 60.5441 37.0182C60.5416 37.0028 60.467 37.0311 60.4618 37.0182C60.449 37.0439 60.4464 37.0259 60.4618 36.9384C60.4773 36.9076 60.521 36.8947 60.5441 36.8587C60.6213 36.7326 60.7886 36.5782 60.9455 36.375C61.2568 35.9659 61.6402 35.4488 62.0724 34.9265C62.4995 34.4094 62.9343 33.8742 63.2765 33.4008C63.4489 33.1641 63.6367 32.9043 63.7602 32.6778C63.8837 32.4489 63.9995 32.3099 63.9995 31.8726C64.0076 31.5605 63.9244 31.2529 63.7602 30.9875C63.6131 30.7374 63.4516 30.496 63.2765 30.2646C62.8908 29.7429 62.4893 29.2333 62.0724 28.7363C61.6427 28.2192 61.2568 27.7792 60.9455 27.3701C60.8043 27.1877 60.6704 26.9997 60.5441 26.8067C60.5056 26.7449 60.5519 26.7475 60.5441 26.7269C60.575 26.5829 60.6265 26.3281 60.7037 26.0837C60.858 25.5949 61.0381 24.9517 61.2671 24.3136C61.4935 23.6807 61.7482 23.0272 61.9103 22.4664C61.9901 22.1833 62.0312 21.9183 62.0724 21.6611C62.111 21.4064 62.2191 21.1902 62.0724 20.776C61.9232 20.3644 61.7019 20.2254 61.5064 20.0556C61.3029 19.8804 61.088 19.7188 60.8632 19.5719C60.3821 19.2426 59.834 18.9467 59.2577 18.6071C58.6789 18.2675 58.0794 17.9176 57.6497 17.6423C57.4336 17.5034 57.2818 17.3284 57.166 17.241C57.166 17.2307 57.0888 17.2513 57.0863 17.241C57.0425 17.1612 57.0683 17.1509 57.0863 17.1586C57.0657 17.012 57.0168 16.7727 57.0065 16.5154C56.9859 16.0009 57.0065 15.3422 57.0065 14.6656C57.0065 13.9915 56.9653 13.3226 56.9242 12.736C56.9062 12.4452 56.8959 12.188 56.847 11.9333C56.7955 11.6785 56.8058 11.3878 56.5228 11.0482C56.2398 10.7086 55.9594 10.6623 55.7201 10.5671C55.4846 10.4686 55.2421 10.3878 54.9946 10.3252C54.4285 10.1837 53.7236 10.0422 53.0649 9.92389C52.4089 9.80554 51.7965 9.71292 51.2974 9.60229C51.0807 9.55795 50.8661 9.50387 50.6542 9.4402C50.6388 9.41447 50.595 9.39903 50.5744 9.36044C50.505 9.22923 50.4304 9.03627 50.3326 8.797C50.1396 8.32102 49.921 7.74214 49.6894 7.10923C49.4578 6.47374 49.2006 5.79709 48.9664 5.25938C48.8481 4.9918 48.776 4.75768 48.6448 4.53642C48.4984 4.2634 48.2746 4.03967 48.0016 3.89321C47.7373 3.72624 47.4291 3.64202 47.1166 3.65137C46.8593 3.65137 46.602 3.70282 46.3113 3.73113C45.7324 3.79545 45.0429 3.85977 44.3817 3.97297C43.723 4.08875 43.121 4.2251 42.6141 4.29457C42.362 4.32802 42.115 4.37176 41.9709 4.37433C41.9555 4.37176 41.9349 4.39234 41.8912 4.37433C41.8732 4.35889 41.9117 4.31515 41.8912 4.29714C41.7831 4.1968 41.5824 4.0836 41.4075 3.89321C41.0653 3.51244 40.6356 2.96185 40.2034 2.44472C39.7711 1.93016 39.3981 1.42331 38.9942 0.998797C38.7935 0.787826 38.5542 0.600011 38.351 0.435351C38.1528 0.273264 37.9856 0.111176 37.5482 0.0339921C37.1108 -0.0431923 36.9102 0.0339921 36.6657 0.113749C36.4188 0.198652 36.2026 0.30671 35.9402 0.435351C35.4179 0.695205 34.8339 1.06569 34.2524 1.40016C33.671 1.73462 33.0947 2.04593 32.6444 2.2852C32.418 2.40613 32.2148 2.5502 32.081 2.60681C31.9472 2.66083 31.816 2.60681 32.0012 2.60681C32.1865 2.60681 32.0527 2.66083 31.9215 2.60681C31.7877 2.55278 31.5844 2.40613 31.358 2.2852C30.9052 2.04593 30.3289 1.73719 29.75 1.40016C29.1711 1.06569 28.5845 0.695205 28.0622 0.435351C27.7998 0.30671 27.5837 0.198652 27.3393 0.113749C27.0923 0.0288465 26.8916 -0.0457652 26.4542 0.0339921ZM26.7758 2.04336C26.8916 2.0871 27.0768 2.1154 27.2569 2.20545C27.6943 2.42156 28.2089 2.75603 28.7852 3.09049C29.3589 3.42239 29.961 3.70282 30.473 3.97297C30.7302 4.10933 30.9695 4.28171 31.1959 4.37433C31.4485 4.48897 31.7239 4.54441 32.0012 4.53642C32.2784 4.54307 32.5535 4.48769 32.8065 4.37433C33.0329 4.28171 33.2722 4.10933 33.5269 3.97297C34.0415 3.70282 34.6435 3.42239 35.2173 3.08792C35.791 2.75603 36.3056 2.42156 36.7455 2.20545C36.9256 2.1154 37.1108 2.08967 37.2266 2.04336C37.3192 2.12569 37.417 2.14627 37.5482 2.2852C37.8878 2.64025 38.3278 3.14195 38.7549 3.65137C39.182 4.16336 39.6528 4.74739 40.0413 5.17962C40.2368 5.39574 40.4221 5.57583 40.6047 5.74307C40.7848 5.9103 40.8929 6.01321 41.248 6.14442C41.5006 6.25612 41.7745 6.31143 42.0507 6.30651C42.2977 6.30651 42.5678 6.26277 42.856 6.22418C43.4271 6.147 44.0523 6.01836 44.7033 5.90258C45.3568 5.78938 45.9897 5.63501 46.4734 5.58098C46.6535 5.55525 46.8336 5.58098 46.9571 5.58098C47.0188 5.69161 47.1114 5.86399 47.1963 6.06467C47.3944 6.51491 47.6131 7.12467 47.8395 7.75243C48.0685 8.3802 48.3438 8.98224 48.5651 9.52253C48.6731 9.7901 48.7709 10.0242 48.8867 10.2429C48.9999 10.4642 49.0796 10.6443 49.3678 10.8861C49.6559 11.1331 49.8566 11.2154 50.0908 11.2901C50.3275 11.3672 50.613 11.3878 50.8961 11.4521C51.4621 11.5756 52.0924 11.7351 52.7433 11.8535C53.3968 11.9718 54.04 12.0567 54.5134 12.1751C54.7193 12.2266 54.8788 12.2934 54.9971 12.3346C55.0177 12.4633 55.0615 12.6048 55.0743 12.8183C55.1103 13.3097 55.0743 13.9967 55.0743 14.6656C55.0769 15.3345 55.0537 16.0137 55.0743 16.5952C55.0872 16.8885 55.1258 17.1561 55.1567 17.4005C55.1901 17.6449 55.2107 17.879 55.3985 18.2058C55.5837 18.5299 55.7664 18.6149 55.9594 18.7666C56.1549 18.921 56.3607 19.0934 56.6026 19.2503C57.0914 19.5616 57.7192 19.8781 58.2929 20.2151C58.8641 20.5496 59.4147 20.9047 59.8186 21.1799C60.0244 21.3163 60.1274 21.4192 60.2225 21.5015C60.1968 21.625 60.1196 21.7768 60.0605 21.9827C59.9241 22.4586 59.7234 23.0427 59.4996 23.6704C59.2732 24.3008 59.0313 24.9646 58.8564 25.5229C58.7663 25.7981 58.7457 26.0812 58.6943 26.3256C58.6428 26.5674 58.5502 26.7604 58.6145 27.1283C58.6788 27.4988 58.8049 27.6429 58.9361 27.8513C59.0648 28.0648 59.2423 28.2629 59.4173 28.4945C59.7723 28.9576 60.1994 29.5107 60.6239 30.0227C61.0484 30.5373 61.4601 30.9901 61.7508 31.3889C61.8949 31.5921 62.0107 31.7645 62.0724 31.8726C62.0081 31.9806 61.8769 32.099 61.7508 32.2739C61.4601 32.6727 61.0484 33.2078 60.6239 33.7224C60.1994 34.237 59.7723 34.7078 59.4173 35.1683C59.2423 35.3999 59.0673 35.6031 58.9361 35.8115C58.7732 36.0542 58.6636 36.3287 58.6145 36.6168C58.5502 36.9847 58.6403 37.1777 58.6943 37.4195C58.7457 37.6614 58.7663 37.8672 58.8564 38.1451C59.0313 38.6982 59.2732 39.3646 59.4996 39.9924C59.7234 40.6227 59.9241 41.2067 60.0605 41.6827C60.1196 41.8885 60.1994 42.0403 60.2225 42.1638C60.1299 42.2461 60.0219 42.3491 59.8186 42.4854C59.4147 42.7607 58.8667 43.1132 58.2929 43.4502C57.7192 43.7847 57.0914 44.1037 56.6026 44.415C56.3607 44.572 56.1549 44.7443 55.9594 44.8987C55.7664 45.0505 55.5837 45.1354 55.3985 45.4596C55.2107 45.7863 55.1901 46.0179 55.1567 46.2649C55.1232 46.5093 55.0872 46.7769 55.0769 47.0676C55.0512 47.6516 55.0769 48.3283 55.0769 48.9972C55.0769 49.6661 55.1103 50.3531 55.0769 50.8471C55.0615 51.058 55.0151 51.2047 54.9946 51.3307C54.8788 51.3719 54.7193 51.4414 54.5134 51.4903C54.04 51.6086 53.3968 51.6935 52.7433 51.8119C52.0924 51.9302 51.4595 52.0897 50.8961 52.2132C50.613 52.275 50.3275 52.2981 50.0908 52.3753C49.8226 52.4529 49.5755 52.5901 49.3678 52.7767C49.0796 53.0211 48.9999 53.2012 48.8841 53.4199C48.7655 53.6556 48.6582 53.8969 48.5625 54.1428C48.3438 54.6831 48.0685 55.2852 47.8421 55.9129C47.6106 56.5407 47.3944 57.2302 47.1989 57.6805C47.1114 57.876 47.0188 57.9738 46.9545 58.0844C46.8361 58.0844 46.656 58.1101 46.4734 58.0844C45.9897 58.0329 45.3568 57.876 44.7033 57.7628C44.0523 57.6496 43.4271 57.6007 42.856 57.5209C42.5891 57.4801 42.3203 57.4526 42.0507 57.4386C41.8037 57.4386 41.603 57.3872 41.248 57.5209C40.862 57.6624 40.7205 57.8168 40.5224 58.0021C40.3269 58.1873 40.0953 58.4034 39.8792 58.6453C39.4495 59.1315 38.9736 59.7078 38.5156 60.2533C38.1297 60.7138 37.7618 61.1589 37.4685 61.4599C37.3758 61.5525 37.3759 61.64 37.3064 61.7018H37.2292C37.1108 61.658 36.9359 61.6349 36.7455 61.5397C36.3081 61.3236 35.7936 60.9891 35.2173 60.6572C34.6435 60.3227 34.0415 59.9625 33.5295 59.6924C33.2722 59.556 33.0329 59.466 32.8039 59.3708C32.5775 59.2756 32.3794 59.1289 32.0012 59.1289C31.623 59.1289 31.4249 59.273 31.1959 59.3682C30.9695 59.4634 30.7302 59.5535 30.4755 59.6898C29.961 59.9625 29.3589 60.3227 28.7852 60.6546C28.2114 60.9891 27.6943 61.3236 27.2569 61.5397C27.0665 61.6349 26.8916 61.658 26.7758 61.7018C26.6645 61.5988 26.5572 61.4915 26.4542 61.3802C26.0384 60.9361 25.636 60.4796 25.2475 60.0114C24.8205 59.502 24.3496 58.9154 23.9611 58.4857C23.7827 58.2888 23.5946 58.1008 23.3977 57.9223C23.2176 57.7551 23.1095 57.6496 22.7545 57.5209C22.3994 57.3897 22.1987 57.4283 21.9518 57.4386C21.7048 57.4386 21.4346 57.4823 21.1465 57.5209C20.5753 57.5981 19.9501 57.6444 19.2966 57.7602C18.6457 57.8734 18.0128 58.0304 17.5291 58.0818C17.349 58.1075 17.1689 58.0818 17.0454 58.0818C16.9862 57.9712 16.891 57.876 16.8061 57.6805C16.608 57.2302 16.3893 56.5407 16.1629 55.9129C15.9339 55.2852 15.6586 54.6831 15.4399 54.1428C15.3432 53.8969 15.2351 53.6557 15.1158 53.4199C15.0026 53.2012 14.9228 53.0211 14.6346 52.7767C14.4266 52.5907 14.1796 52.4536 13.9117 52.3753C13.675 52.2981 13.3894 52.2775 13.1064 52.2132C12.5404 52.0897 11.91 51.9302 11.2565 51.8119C10.6056 51.6935 9.96239 51.6086 9.48899 51.4903C9.28317 51.4388 9.12365 51.3693 9.0053 51.3282C8.98729 51.2021 8.94098 51.058 8.92812 50.8471C8.8921 50.3531 8.92812 49.6661 8.92812 48.9972C8.92554 48.3283 8.9487 47.6516 8.92812 47.0676C8.91352 46.7989 8.88605 46.531 8.84579 46.2649C8.81234 46.0179 8.79176 45.7863 8.60394 45.4596C8.4187 45.1354 8.23603 45.0479 8.04306 44.8987C7.84753 44.7443 7.6417 44.572 7.39986 44.415C6.91102 44.1037 6.28325 43.7873 5.70951 43.4502C5.13834 43.1158 4.58776 42.7607 4.18382 42.4854C3.978 42.3491 3.87509 42.2461 3.77989 42.1638C3.80562 42.0403 3.8828 41.886 3.94198 41.6801C4.07834 41.2067 4.27902 40.6227 4.50285 39.9924C4.72926 39.3646 4.97111 38.6982 5.14606 38.1451C5.23611 37.8672 5.25669 37.664 5.30815 37.4195C5.35961 37.1777 5.45223 36.9847 5.38791 36.6168C5.33881 36.3287 5.2292 36.0542 5.0663 35.8115C4.93766 35.6006 4.76014 35.3999 4.58518 35.1683C4.23271 34.7052 3.80305 34.2344 3.37853 33.7224C2.95401 33.2078 2.53979 32.6727 2.25163 32.2739C2.13564 32.1196 2.02828 31.959 1.93003 31.7928C1.99435 31.6822 2.12556 31.5664 2.25163 31.3914C2.53979 30.9901 2.95401 30.5373 3.37853 30.0227C3.80305 29.5081 4.23271 28.9576 4.58518 28.4945C4.76014 28.2629 4.93509 28.0622 5.0663 27.8513C5.19752 27.6429 5.32359 27.4988 5.38791 27.1309C5.45223 26.7604 5.36218 26.5674 5.30815 26.3256C5.25669 26.0837 5.23611 25.7981 5.14606 25.5203C4.97111 24.9646 4.72926 24.3008 4.50285 23.6704C4.29899 23.1136 4.11195 22.5508 3.94198 21.9827C3.8828 21.7768 3.80305 21.625 3.77989 21.5015C3.87251 21.4192 3.98057 21.3163 4.18382 21.1799C4.58776 20.9047 5.13577 20.5496 5.70951 20.2151C6.28325 19.8807 6.91102 19.5616 7.39986 19.2503C7.6417 19.0934 7.84753 18.921 8.04306 18.7666C8.23603 18.6149 8.4187 18.53 8.60394 18.2032C8.79176 17.879 8.81234 17.6475 8.84579 17.4005C8.87923 17.1561 8.91525 16.8859 8.92554 16.5952C8.95127 16.0137 8.92554 15.3345 8.92554 14.6656C8.92554 13.9967 8.8921 13.3097 8.92554 12.8183C8.94098 12.6048 8.98729 12.4581 9.00787 12.3346C9.12365 12.2934 9.28317 12.224 9.48899 12.1751C9.96239 12.0567 10.6056 11.9693 11.2591 11.8535C11.91 11.7351 12.5429 11.5756 13.1064 11.4496C13.3894 11.3878 13.675 11.3647 13.9117 11.2901C14.1794 11.2115 14.4264 11.0744 14.6346 10.8887C14.9228 10.6443 15.0026 10.4642 15.1183 10.2455C15.2315 10.0242 15.3293 9.7901 15.4374 9.51995C15.6586 8.97966 15.9339 8.3802 16.1629 7.75243C16.3893 7.12467 16.608 6.51748 16.8061 6.06467C16.8936 5.86656 16.9862 5.69161 17.048 5.58098C17.1663 5.58098 17.3464 5.55525 17.5291 5.58098C18.0128 5.63501 18.6457 5.78938 19.2992 5.90258C19.9501 6.01578 20.5753 6.147 21.1465 6.22418C21.4346 6.26277 21.7048 6.29879 21.9518 6.30651C22.2273 6.30504 22.4999 6.24998 22.7545 6.14442C23.1095 6.01321 23.2176 5.9103 23.3977 5.74307C23.5804 5.57583 23.7656 5.39574 23.9611 5.17962C24.3496 4.74739 24.8205 4.16336 25.2475 3.65137C25.6746 3.14195 26.1146 2.64025 26.4542 2.2852C26.5854 2.14627 26.6858 2.12569 26.7758 2.04336ZM31.8417 8.71724C25.7621 8.71724 19.7366 11.1717 15.4374 15.4709C11.1407 19.7675 8.68627 25.793 8.68627 31.8726C8.68627 37.9495 11.1407 43.8953 15.4399 48.1945C19.7366 52.4911 25.7621 55.0279 31.8391 55.0279C37.9187 55.0279 43.9443 52.4911 48.2435 48.1945C52.5563 43.8556 54.9833 37.9903 54.9971 31.8726C54.9971 25.7956 52.5401 19.77 48.2435 15.4709C43.9443 11.1743 37.9187 8.71724 31.8417 8.71724ZM31.8417 11.2901C37.2138 11.2901 42.5961 13.5207 46.3936 17.3207C50.2251 21.1987 52.3885 26.4211 52.4217 31.8726C52.4217 37.2446 50.1911 42.6269 46.3936 46.4244C42.5153 50.2574 37.2918 52.4218 31.8391 52.4551C26.3873 52.4211 21.1649 50.2568 17.2872 46.4244C13.4548 42.5468 11.2905 37.3244 11.2565 31.8726C11.2565 26.5005 13.4897 21.1182 17.2872 17.3207C21.1649 13.4883 26.3899 11.324 31.8417 11.2901ZM31.7594 19.5719C30.9875 19.5719 30.6531 19.9347 30.3932 20.2151C30.1359 20.493 29.9507 20.8481 29.75 21.1799C29.3486 21.8437 29.0039 22.6207 28.6231 23.4312C28.2423 24.2416 27.8075 25.0623 27.4988 25.6824C27.3444 25.9911 27.2801 26.2381 27.1772 26.4053C27.1257 26.4902 27.0434 26.5443 27.0151 26.5674C26.8247 26.6137 26.4748 26.5931 26.1326 26.6446C25.4457 26.7578 24.6095 26.9276 23.7193 27.0485C22.8291 27.1695 21.9826 27.2647 21.2262 27.4499C20.8393 27.5467 20.4627 27.6812 20.1019 27.8513C19.7597 28.0159 19.2915 28.16 19.0573 28.8984C18.8232 29.6342 19.1114 30.0947 19.2992 30.4266C19.4844 30.756 19.6851 31.0184 19.9424 31.3091C20.4518 31.8957 21.1336 32.4669 21.7897 33.0792C22.4457 33.6915 23.0632 34.363 23.5598 34.8467C23.8068 35.0886 24.0743 35.2584 24.203 35.4102C24.203 35.4411 24.2081 35.4745 24.203 35.5723C24.1901 35.7678 24.1773 36.0328 24.1232 36.375C24.0152 37.0594 23.799 37.9856 23.6395 38.868C23.4891 39.7197 23.3818 40.5784 23.3179 41.4409C23.2896 41.8268 23.269 42.187 23.3179 42.5652C23.3668 42.9408 23.4131 43.4013 24.0409 43.8516C24.6712 44.3018 25.1987 44.168 25.5692 44.0934C25.9422 44.0188 26.2561 43.921 26.6137 43.7718C27.3315 43.4682 28.0802 43.0797 28.8649 42.6449C29.6522 42.2127 30.4215 41.6801 31.0364 41.3585C31.3451 41.199 31.6565 41.1141 31.8417 41.0369C31.8829 41.0524 31.9446 41.0163 32.0012 41.0369C32.1839 41.1141 32.4952 41.2839 32.8065 41.4409C33.424 41.7547 34.183 42.1432 34.9754 42.5652C35.7678 42.9897 36.5088 43.3962 37.2266 43.6921C37.5868 43.8387 37.8981 43.9442 38.2738 44.0137C38.6468 44.0831 39.1768 44.2272 39.7995 43.7718C40.4221 43.3139 40.4787 42.7813 40.525 42.4057C40.5639 42.031 40.5639 41.6534 40.525 41.2788C40.4555 40.5069 40.2934 39.6682 40.1211 38.7883C39.9512 37.9058 39.7557 36.977 39.6399 36.2927C39.5808 35.953 39.5756 35.688 39.5576 35.4899V35.4102C39.5808 35.3793 39.6091 35.3664 39.6399 35.3304C39.7686 35.1761 39.9564 35.014 40.2008 34.767C40.6896 34.2781 41.3226 33.6195 41.9709 32.9969C42.6193 32.3794 43.2367 31.7413 43.741 31.1496C43.9906 30.8537 44.2016 30.5964 44.3842 30.2646C44.5643 29.9301 44.8679 29.4696 44.6235 28.7363C44.3817 28.003 43.8439 27.8487 43.4992 27.6917C43.1544 27.5322 42.8302 27.3779 42.452 27.2904C41.6014 27.1151 40.7428 26.9812 39.8792 26.889C38.989 26.7758 38.1554 26.7475 37.4685 26.6472C37.1977 26.6055 36.929 26.5514 36.6632 26.4851C36.6426 26.4645 36.532 26.5211 36.5037 26.4851C36.4522 26.4465 36.5191 26.4156 36.5037 26.4053C36.4007 26.2381 36.2592 25.9088 36.1023 25.6C35.7858 24.9826 35.4488 24.2364 35.0552 23.4312C34.6641 22.6233 34.1804 21.7588 33.7687 21.1002C33.5655 20.7683 33.4677 20.4904 33.2079 20.2151C33.0295 20.0069 32.8069 19.8411 32.5563 19.7298C32.3057 19.6185 32.0335 19.5646 31.7594 19.5719ZM31.7594 22.8677C32.0347 23.3463 32.4077 23.9046 32.7242 24.5555C33.105 25.3402 33.4188 26.1197 33.7713 26.8067C33.9463 27.1514 34.1572 27.4962 34.3322 27.7715C34.5072 28.0494 34.6358 28.2758 35.0577 28.5768C35.4771 28.8778 35.7009 28.9035 36.0225 28.9781C36.3416 29.0553 36.7635 29.0811 37.1469 29.1402C37.911 29.2509 38.7729 29.3512 39.6399 29.4593C40.3758 29.5545 41.0215 29.593 41.5696 29.7011C41.1939 30.1153 40.7385 30.635 40.2008 31.1496C39.573 31.7516 38.899 32.3717 38.3535 32.9171C38.0808 33.1924 37.839 33.3905 37.628 33.6401C37.4196 33.8948 37.2241 34.1135 37.0671 34.6075C36.9102 35.0963 36.9591 35.3253 36.9848 35.652C37.0105 35.9788 37.0825 36.3981 37.1469 36.7763C37.2755 37.5379 37.4633 38.4152 37.6306 39.2694C37.7695 39.9975 37.8878 40.6459 37.9522 41.199C37.4376 40.9726 36.8458 40.669 36.1821 40.314C35.4128 39.9023 34.6204 39.4572 33.9308 39.1099C33.5861 38.9349 33.2696 38.7497 32.966 38.6262C32.613 38.4629 32.2281 38.3803 31.8391 38.3843C31.3246 38.3843 31.1779 38.5001 30.8769 38.6262C30.5733 38.7523 30.2543 38.9298 29.9095 39.1099C29.2251 39.4675 28.4224 39.9743 27.6609 40.3963C27.0254 40.7436 26.4722 40.9675 25.9705 41.199C26.0297 40.6459 26.0811 39.9975 26.2124 39.2694C26.3667 38.4127 26.5751 37.5405 26.696 36.7763C26.7552 36.3956 26.7527 36.056 26.7732 35.7318C26.799 35.405 26.8581 35.1761 26.696 34.6872C26.5823 34.3271 26.3888 33.9974 26.13 33.7224C25.9191 33.4728 25.6849 33.2696 25.4096 32.9995C24.8565 32.4592 24.1953 31.9034 23.5572 31.3091C23.0246 30.81 22.5692 30.2697 22.1936 29.8632C22.7339 29.75 23.4028 29.6394 24.1232 29.5416C24.9851 29.4232 25.8496 29.3409 26.6137 29.22C26.9971 29.1582 27.3418 29.0579 27.6583 28.9781C27.9773 28.8984 28.2089 28.883 28.6257 28.5768C29.0399 28.268 29.0965 28.0519 29.2689 27.7715C29.4387 27.4936 29.6574 27.154 29.8298 26.8067C30.1745 26.1146 30.5064 25.3453 30.8743 24.5555C31.1856 23.8943 31.4918 23.3514 31.7594 22.8677ZM15.4374 59.2885C15.5691 59.5259 15.7653 59.7213 16.0034 59.8519C16.3842 60.0757 16.6286 60.0063 16.8859 60.014C17.1431 60.014 17.4004 59.9625 17.6912 59.9317C18.27 59.8699 18.9596 59.8082 19.6208 59.6924C20.2794 59.5766 20.8815 59.4403 21.3883 59.3708C21.6404 59.3373 21.8874 59.2936 22.0315 59.2885C22.0392 59.3039 22.0572 59.3168 22.1113 59.3708C22.2193 59.4686 22.42 59.5792 22.595 59.7721C22.8342 60.0371 23.1018 60.4539 23.3977 60.8167L19.2966 68.2933L18.252 64.3543C18.1474 64.0296 17.9226 63.7571 17.6237 63.5926C17.3248 63.4281 16.9744 63.3839 16.644 63.4693L12.5429 64.5164L15.4374 59.2885ZM41.8912 59.2885C41.7188 59.3528 41.8268 59.2885 41.9709 59.2885C42.115 59.2885 42.362 59.3373 42.6141 59.3708C43.1184 59.4403 43.723 59.5766 44.3842 59.6924C45.0429 59.8082 45.7324 59.8673 46.3138 59.9317C46.602 59.9625 46.8593 60.0191 47.1166 60.014C47.3739 60.014 47.6183 60.0732 48.0016 59.8519C48.1277 59.7773 48.1611 59.6924 48.2409 59.6101L51.0556 64.5164L47.0368 63.4693C46.7065 63.3839 46.356 63.4281 46.0571 63.5926C45.7582 63.7571 45.5334 64.0296 45.4288 64.3543L44.3817 68.3756L40.3629 61.1383C40.7128 60.7189 41.0267 60.2713 41.3277 59.9317C41.5232 59.713 41.6853 59.4866 41.8114 59.3708C41.9349 59.2524 42.0816 59.219 41.8912 59.2885Z"
          fill="black"/>
</svg>
