<svg xmlns="http://www.w3.org/2000/svg" width="32" height="32" id="medal">
    <g style="line-height:125%">
        <path d="M13.844 1.625c-.17.03-.235.093-.313.156-.078.063-.171.137-.25.219-.156.165-.3.362-.469.563-.167.2-.335.414-.468.562-.067.074-.146.118-.188.156l-.031.031c-.056 0-.152-.018-.25-.03-.196-.028-.431-.08-.688-.126-.256-.045-.524-.069-.75-.094-.112-.011-.212-.033-.312-.03a.62.62 0 0 0-.344.093.612.612 0 0 0-.25.25c-.051.086-.08.177-.125.281a12.83 12.83 0 0 0-.281.719c-.09.247-.175.47-.25.656-.038.093-.067.168-.094.219-.008.015-.025.022-.031.031-.053.017-.153.04-.25.063-.194.043-.432.079-.688.125-.255.046-.53.101-.75.156-.11.027-.187.057-.28.094-.094.037-.204.056-.313.187-.11.132-.106.245-.125.344-.02.099-.024.199-.032.313-.015.227-.03.487-.03.75-.001.262.007.518 0 .718-.005.1-.024.194-.032.25-.007.003-.009.014-.031.031-.045.036-.104.103-.188.157-.167.107-.4.243-.625.375-.225.132-.437.247-.625.375-.094.064-.174.12-.25.187-.075.067-.16.121-.218.281a.59.59 0 0 0-.032.344c.016.1.063.203.094.313.063.219.13.472.219.719.088.246.19.496.25.687.03.095.05.194.062.25-.003.01.015.01 0 .031-.03.048-.095.14-.156.219-.121.159-.271.33-.438.531-.166.202-.335.41-.468.594-.067.092-.14.193-.188.281a.625.625 0 0 0-.094.344c0 .17.046.224.094.313.048.087.121.188.188.28.133.185.302.393.469.595.166.201.316.403.437.562.06.079.126.14.156.188.01.014.026.02.032.03-.004.013-.028.015-.032.032a2.568 2.568 0 0 1-.062.219c-.06.19-.162.44-.25.687-.089.247-.156.5-.219.719-.031.11-.078.213-.094.313a.59.59 0 0 0 .032.343c.057.16.143.215.218.282.076.067.156.123.25.187.188.127.4.274.625.406.225.132.458.237.625.344.084.054.143.121.188.156.022.018.024.06.031.063.009.057.028.13.031.218.008.201 0 .457 0 .72 0 .262.016.522.032.75.007.113.011.213.03.312.02.099.016.212.126.343.11.132.219.151.312.188.094.037.172.066.282.094.22.055.494.11.75.156.255.046.493.082.687.125.097.021.197.045.25.063.01.003.023-.004.031 0 .006.008-.006.018 0 .03.027.05.056.127.094.22.062.153.146.358.219.562L7 27.25c-.179.339.19.81.563.719l2.25-.594.593 2.25c.099.398.763.464.938.094l2.031-3.688c.056.05.104.114.156.157.078.063.143.125.313.156.17.03.248 0 .344-.032.095-.033.18-.075.28-.125.204-.1.432-.244.657-.375.225-.13.45-.25.625-.343.088-.047.167-.072.219-.094.01.005.036-.01.062 0 .052.022.131.047.219.094.176.093.4.213.625.343.226.131.453.275.656.375.102.05.186.092.282.125.095.033.173.063.343.032a.532.532 0 0 0 .282-.125c.02-.017.041-.042.062-.063l2.031 3.563c.175.37.84.304.938-.094l.593-2.25 2.25.594c.372.092.742-.38.563-.719l-2.031-3.563c.008-.022.023-.039.031-.062.09-.246.175-.502.25-.688.038-.093.067-.168.094-.218-.006-.014.02-.021.031-.032.053-.017.153-.041.25-.062.194-.043.432-.079.688-.125.255-.046.53-.102.75-.156.11-.027.187-.057.28-.094.094-.037.204-.056.313-.188.11-.131.106-.244.125-.343.02-.1.024-.199.032-.313.015-.227.03-.487.03-.75.001-.262-.007-.518 0-.718.004-.088.023-.162.032-.22-.003.002-.002-.025 0-.03.008-.007.018-.021.031-.032.045-.035.104-.102.188-.156.167-.107.4-.212.625-.344.224-.132.437-.279.625-.406.094-.064.174-.12.25-.188.075-.067.16-.12.218-.28.058-.161.016-.245 0-.345-.015-.1-.03-.203-.062-.312-.063-.22-.162-.472-.25-.719-.088-.246-.158-.496-.219-.687a2.646 2.646 0 0 1-.062-.219c-.001-.006-.03.005-.032 0-.005.01-.006.003 0-.031.006-.012.023-.017.032-.031.03-.049.095-.109.156-.188.121-.159.27-.36.438-.563.166-.201.335-.409.468-.593.067-.092.14-.193.188-.281.048-.089.093-.143.093-.313a.623.623 0 0 0-.093-.344 2.917 2.917 0 0 0-.188-.281 12.33 12.33 0 0 0-.468-.594c-.167-.201-.317-.372-.438-.531a3.387 3.387 0 0 1-.156-.219c-.015-.024.003-.023 0-.031.012-.056.032-.155.062-.25.06-.19.13-.44.219-.688.088-.246.187-.5.25-.718.031-.11.047-.213.063-.313.015-.099.057-.183 0-.344-.058-.16-.144-.214-.22-.28a2.367 2.367 0 0 0-.25-.188c-.187-.128-.4-.243-.624-.375-.225-.132-.458-.268-.625-.375-.084-.054-.143-.122-.188-.156 0-.004-.03.004-.031 0-.017-.031-.007-.035 0-.032-.008-.057-.027-.15-.031-.25-.008-.2 0-.456 0-.719 0-.262-.016-.522-.032-.75-.007-.113-.011-.213-.03-.312-.02-.099-.016-.212-.126-.344-.11-.132-.219-.15-.312-.187a2.005 2.005 0 0 0-.282-.094c-.22-.055-.494-.11-.75-.156-.255-.046-.493-.082-.687-.125a2.86 2.86 0 0 1-.25-.063c-.006-.01-.023-.016-.031-.031-.027-.051-.056-.126-.094-.219-.075-.185-.16-.41-.25-.656-.09-.247-.19-.51-.281-.719-.046-.104-.074-.195-.125-.281a.612.612 0 0 0-.25-.25.61.61 0 0 0-.344-.094c-.1 0-.2.02-.313.031-.225.025-.493.05-.75.094-.256.045-.49.098-.687.125-.098.013-.194.03-.25.031-.006-.001-.014.007-.031 0-.007-.006.008-.023 0-.03-.042-.039-.12-.083-.188-.157-.133-.148-.3-.362-.468-.563-.168-.2-.313-.397-.47-.562-.078-.082-.171-.155-.25-.219-.077-.063-.142-.126-.312-.156s-.248 0-.343.031c-.096.033-.18.075-.282.125-.203.101-.43.245-.656.375-.226.13-.45.251-.625.344-.088.047-.167.103-.219.125-.052.021-.103 0-.031 0s.02.021-.031 0c-.052-.021-.131-.078-.219-.125-.176-.093-.4-.213-.625-.344-.225-.13-.453-.274-.656-.375-.102-.05-.186-.092-.281-.125-.096-.033-.174-.062-.344-.031zm.125.781c.045.017.117.028.187.063.17.084.37.214.594.344.223.129.457.238.656.343.1.053.193.12.281.156a.708.708 0 0 0 .313.063.723.723 0 0 0 .313-.063c.088-.036.181-.103.28-.156.2-.105.434-.214.657-.344.223-.129.423-.259.594-.343.07-.035.142-.045.187-.063.036.032.074.04.125.094.132.138.303.333.469.531.166.199.349.426.5.594.076.084.148.154.219.219.07.065.112.105.25.156a.739.739 0 0 0 .312.063c.096 0 .201-.017.313-.032.222-.03.465-.08.718-.125.254-.044.5-.104.688-.125.07-.01.14 0 .188 0 .024.043.06.11.093.188.077.175.162.412.25.656.089.244.196.478.282.688.042.104.08.195.125.28.044.086.075.156.187.25.112.096.19.128.281.157.092.03.203.038.313.063.22.048.465.11.718.156.254.046.504.079.688.125.08.02.142.046.188.062.008.05.025.105.03.188.014.191 0 .458 0 .718.001.26-.008.524 0 .75.005.114.02.218.032.313.013.095.021.186.094.313.072.126.143.159.218.218.076.06.156.127.25.188.19.121.434.244.657.375.222.13.436.268.593.375.08.053.12.093.157.125-.01.048-.04.107-.063.187-.053.185-.131.412-.218.656-.088.245-.182.503-.25.72-.035.107-.043.217-.063.312-.02.094-.056.169-.031.312.025.144.074.2.125.281.05.083.119.16.187.25.138.18.304.395.469.594.165.2.325.376.438.531.056.079.101.146.125.188-.025.042-.076.088-.125.156-.113.155-.273.363-.438.563-.165.2-.331.383-.469.562-.068.09-.136.169-.187.25a.804.804 0 0 0-.125.313c-.025.143.01.218.031.312.02.094.028.174.063.282.068.215.162.474.25.718.087.245.165.472.218.657.023.08.054.139.063.187-.036.032-.078.072-.157.125-.157.107-.37.244-.593.375-.223.13-.467.254-.657.375-.094.061-.174.128-.25.188-.075.059-.146.092-.218.218-.073.127-.081.217-.094.313-.013.095-.027.199-.031.312-.01.227 0 .49 0 .75s.013.527 0 .719c-.006.082-.024.139-.032.188-.045.016-.107.043-.187.062-.184.046-.434.079-.688.125-.253.046-.499.108-.718.156-.11.024-.221.033-.313.063a.72.72 0 0 0-.281.156c-.112.095-.143.165-.188.25a3.231 3.231 0 0 0-.125.281c-.085.21-.192.444-.28.688-.09.244-.174.512-.25.687-.034.076-.07.114-.095.157-.046 0-.116.01-.187 0-.188-.02-.434-.081-.688-.125-.253-.044-.496-.063-.718-.094a3.156 3.156 0 0 0-.313-.032c-.096 0-.174-.02-.312.032-.15.055-.205.115-.282.187-.076.072-.166.156-.25.25-.167.189-.352.413-.53.625-.15.179-.293.352-.407.469-.036.036-.036.07-.063.094h-.03c-.046-.017-.114-.026-.188-.063-.17-.084-.37-.214-.594-.343-.223-.13-.457-.27-.656-.375-.1-.053-.193-.088-.282-.125-.088-.037-.165-.094-.312-.094s-.224.056-.313.093c-.088.037-.181.072-.28.125-.2.106-.434.246-.657.375-.223.13-.424.26-.594.344-.074.037-.142.046-.187.063a2.277 2.277 0 0 1-.125-.125 11.835 11.835 0 0 1-.469-.532c-.166-.198-.349-.426-.5-.593a3.156 3.156 0 0 0-.219-.219c-.07-.065-.112-.106-.25-.156-.138-.051-.216-.036-.312-.032-.096 0-.201.017-.313.032-.222.03-.465.048-.719.093-.253.044-.499.105-.687.125-.07.01-.14 0-.188 0-.023-.043-.06-.08-.093-.156-.077-.175-.162-.443-.25-.687-.089-.244-.196-.478-.281-.688a3.288 3.288 0 0 0-.126-.281c-.044-.085-.075-.155-.187-.25a.728.728 0 0 0-.281-.156c-.092-.03-.203-.038-.313-.063-.22-.048-.465-.11-.719-.156-.253-.046-.503-.079-.687-.125-.08-.02-.142-.047-.188-.063-.007-.049-.025-.105-.03-.187-.014-.192 0-.459 0-.719-.001-.26.008-.523 0-.75A3.271 3.271 0 0 0 7 19.594c-.013-.096-.021-.186-.094-.313-.072-.126-.143-.16-.218-.218-.076-.06-.156-.127-.25-.188-.19-.121-.434-.244-.657-.375-.222-.13-.436-.268-.593-.375-.08-.053-.12-.093-.157-.125.01-.048.04-.108.063-.188.053-.184.131-.411.218-.656.088-.244.182-.503.25-.718.035-.108.043-.187.063-.282.02-.094.056-.169.031-.312a.804.804 0 0 0-.125-.313c-.05-.082-.119-.16-.187-.25-.137-.18-.304-.363-.469-.562-.165-.2-.326-.408-.438-.563a2.035 2.035 0 0 1-.125-.187c.025-.043.076-.088.125-.156.112-.156.273-.332.438-.532.165-.2.332-.414.469-.594.068-.09.136-.168.187-.25.051-.081.1-.137.125-.28.025-.144-.01-.219-.031-.313-.02-.094-.028-.205-.063-.313-.068-.216-.162-.474-.25-.719a11.479 11.479 0 0 1-.218-.656c-.023-.08-.054-.139-.063-.187.036-.032.078-.072.157-.125.157-.107.37-.245.593-.375.223-.13.467-.254.657-.375.094-.061.174-.128.25-.188.075-.059.146-.092.218-.219.073-.126.081-.216.094-.312.013-.095.027-.2.031-.313.01-.226 0-.49 0-.75s-.013-.527 0-.718c.006-.083.024-.14.032-.188.045-.016.107-.043.187-.062.184-.046.434-.08.688-.125.253-.046.499-.108.718-.157.11-.024.221-.033.313-.062a.732.732 0 0 0 .281-.156c.112-.095.143-.165.188-.25.044-.086.082-.177.124-.282.086-.21.193-.443.282-.687.088-.244.173-.48.25-.656.034-.077.07-.145.094-.188.046 0 .116-.01.187 0 .188.021.434.081.688.125.253.044.496.095.718.125.112.015.217.029.313.032A.826.826 0 0 0 12.406 4c.138-.051.18-.091.25-.156.071-.065.143-.135.219-.219.151-.168.334-.395.5-.594.166-.198.337-.393.469-.531.051-.054.09-.062.125-.094zM15.938 5c-2.363 0-4.705.954-6.376 2.625-1.67 1.67-2.624 4.012-2.624 6.375 0 2.362.954 4.673 2.625 6.344 1.67 1.67 4.012 2.656 6.374 2.656 2.363 0 4.705-.986 6.376-2.656A9.028 9.028 0 0 0 24.938 14c0-2.362-.955-4.704-2.625-6.375C20.642 5.955 18.3 5 15.938 5zm0 1c2.088 0 4.18.867 5.656 2.344A8.118 8.118 0 0 1 23.937 14c0 2.088-.867 4.18-2.343 5.656A8.118 8.118 0 0 1 15.937 22a8.118 8.118 0 0 1-5.656-2.344A8.118 8.118 0 0 1 7.937 14c0-2.088.868-4.18 2.344-5.656A8.118 8.118 0 0 1 15.937 6zm-.032 3.219c-.3 0-.43.141-.531.25-.1.108-.172.246-.25.375-.156.258-.29.56-.438.875-.148.315-.317.634-.437.875-.06.12-.085.216-.125.281-.02.033-.052.054-.063.063-.074.018-.21.01-.343.03-.267.044-.592.11-.938.157s-.675.084-.969.156a2.38 2.38 0 0 0-.437.156c-.133.064-.315.12-.406.407-.091.286.021.465.094.594.072.128.15.23.25.343.198.228.463.45.718.688.255.238.495.499.688.687.096.094.2.16.25.219 0 .012.002.025 0 .063-.005.076-.01.179-.031.312-.042.266-.126.626-.188.969a9.99 9.99 0 0 0-.125 1c-.011.15-.019.29 0 .437.019.146.037.325.281.5.245.175.45.123.594.094.145-.029.267-.067.406-.125.279-.118.57-.269.875-.438.306-.168.605-.375.844-.5.12-.062.241-.095.313-.125.016.006.04-.008.062 0 .071.03.192.096.313.157.24.122.535.273.843.437.308.165.596.323.875.438.14.057.261.098.407.125.145.027.351.083.593-.094.242-.178.264-.385.282-.531a2.122 2.122 0 0 0 0-.438c-.027-.3-.09-.626-.157-.968-.066-.343-.142-.704-.187-.97-.023-.132-.025-.235-.032-.312v-.031c.009-.012.02-.017.032-.031.05-.06.123-.123.218-.219.19-.19.436-.446.688-.688.252-.24.492-.488.688-.718.097-.115.179-.215.25-.344.07-.13.188-.309.093-.594-.094-.285-.303-.345-.437-.406-.134-.062-.26-.122-.407-.156a10.454 10.454 0 0 0-1-.156c-.346-.044-.67-.055-.937-.094a3.485 3.485 0 0 1-.313-.063c-.008-.008-.051.014-.062 0-.02-.015.006-.027 0-.031-.04-.065-.095-.193-.156-.313-.123-.24-.254-.53-.407-.843-.152-.314-.34-.65-.5-.906-.079-.129-.117-.237-.218-.344a.716.716 0 0 0-.563-.25zm0 1.281c.107.186.252.403.375.656.148.305.27.608.407.875.068.134.15.268.218.375.068.108.118.196.282.313.163.117.25.127.375.156.124.03.288.04.437.063.297.043.632.082.969.124.286.037.537.052.75.094-.146.161-.323.363-.532.563-.244.234-.506.475-.718.687-.106.107-.2.184-.282.281-.081.099-.157.184-.218.376-.061.19-.042.279-.032.406.01.127.038.29.063.437.05.296.123.637.188.969.054.283.1.535.125.75-.2-.088-.43-.206-.688-.344-.299-.16-.607-.333-.875-.468-.134-.068-.257-.14-.375-.188a1.018 1.018 0 0 0-.438-.094c-.2 0-.257.045-.374.094-.118.049-.242.118-.376.188-.266.139-.578.336-.874.5-.247.135-.462.222-.657.312.023-.215.043-.467.094-.75.06-.333.141-.672.188-.969.023-.148.022-.28.03-.406.01-.127.033-.216-.03-.406a.976.976 0 0 0-.22-.375c-.082-.097-.173-.176-.28-.281-.215-.21-.472-.426-.72-.657-.207-.194-.384-.404-.53-.562.21-.044.47-.087.75-.125.335-.046.671-.078.968-.125.149-.024.283-.063.406-.094.124-.031.214-.037.376-.156.161-.12.183-.204.25-.313.066-.108.151-.24.218-.375.134-.269.263-.568.406-.875.121-.257.24-.468.344-.656zM9.562 24.656a.559.559 0 0 0 .22.219c.148.087.243.06.343.063.1 0 .2-.02.313-.032.225-.024.493-.048.75-.093.256-.045.49-.098.687-.125.098-.013.194-.03.25-.032.003.006.01.011.031.032.042.038.12.081.188.156.093.103.197.265.312.406l-1.594 2.906-.406-1.531a.52.52 0 0 0-.625-.344l-1.594.407zm10.282 0c-.067.025-.025 0 .031 0s.152.019.25.032c.196.027.431.08.688.125.256.045.524.068.75.093.112.012.212.034.312.032.1 0 .195.023.344-.063.049-.029.062-.062.093-.094l1.094 1.907-1.562-.407a.52.52 0 0 0-.625.344l-.407 1.563-1.562-2.813c.136-.163.258-.337.375-.469.076-.085.139-.173.188-.218.048-.046.104-.059.03-.032z"
              color="#000" overflow="visible"
              style="text-indent:0;text-align:start;line-height:125%;text-transform:none;block-progression:tb;marker:none;-inkscape-font-specification:Sans"
              font-family="sans-serif" font-weight="400" letter-spacing="0" word-spacing="0"></path>
    </g>
</svg>