<svg xmlns="http://www.w3.org/2000/svg" viewBox="0 0 512 512" id="medal">
    <path d="M256 93.1c-53.4 0-96.8 43.4-96.8 96.8s43.4 96.8 96.8 96.8 96.8-43.4 96.8-96.8-43.4-96.8-96.8-96.8zm0 173.4c-42.2 0-76.6-34.4-76.6-76.6 0-42.2 34.4-76.6 76.6-76.6s76.6 34.4 76.6 76.6c0 42.2-34.4 76.6-76.6 76.6z"></path>
    <path d="m408.7 183.8-21.9-29 4.5-36.1c.6-4.5-1.9-8.8-6.1-10.6L351.7 94l-14.1-33.5c-1.8-4.2-6.1-6.7-10.6-6.1l-36 4.5L262 37a10.2 10.2 0 0 0-12.2 0l-29 21.9-36-4.5c-4.5-.6-8.8 1.9-10.6 6.1L160.1 94l-33.5 14.1c-4.2 1.8-6.7 6.1-6.1 10.6l4.5 36.1-21.9 29a10.2 10.2 0 0 0 0 12.2l21.9 29-4.5 36c-.6 4.5 1.9 8.8 6.1 10.6l33.5 14.1 14.1 33.5c1.8 4.2 6.1 6.7 10.6 6.1h.2l-36.6 139.1c-1 4 .4 8.2 3.8 10.7 1.8 1.3 3.9 2 6 2 1.8 0 3.7-.5 5.3-1.5l92.4-57.2 92.4 57.2c3.5 2.2 8 2 11.3-.5 3.3-2.5 4.8-6.7 3.8-10.7l-36.6-139.1h.2c4.5.6 8.8-1.9 10.6-6.1l14.1-33.5 33.5-14.1c4.2-1.8 6.7-6.1 6.1-10.6l-4.5-36 21.9-29c2.7-3.6 2.7-8.6 0-12.2zm-71.2 261.1-76.2-47.2c-3.3-2-7.4-2-10.6 0l-76.2 47.2 32.2-122.5 14.3-1.8 29 21.9c1.8 1.4 3.9 2 6.1 2s4.3-.7 6.1-2l29-21.9 14.3 1.8 32 122.5zM368.2 216c-1.6 2.1-2.3 4.7-2 7.3l4.1 32.5-30.2 12.7c-2.4 1-4.4 3-5.4 5.4L322 304.2l-32.5-4.1c-2.6-.4-5.2.4-7.3 2L256 321.9l-26.2-19.8c-1.8-1.3-3.9-2-6.1-2-.4 0-.8 0-1.3.1l-32.5 4.1-12.6-30.3c-1-2.4-3-4.4-5.4-5.4l-30.2-12.7 4.1-32.5c.3-2.6-.4-5.2-2-7.3L124 189.9l19.8-26.2c1.6-2.1 2.3-4.7 2-7.3l-4.1-32.5 30.2-12.7c2.4-1 4.4-3 5.4-5.4L190 75.5l32.5 4.1c2.6.3 5.2-.4 7.3-2L256 57.8l26.2 19.8c2.1 1.6 4.7 2.3 7.3 2l32.5-4.1 12.7 30.2c1 2.4 3 4.4 5.4 5.4l30.2 12.7-4.1 32.5c-.3 2.6.4 5.2 2 7.3l19.8 26.2-19.8 26.2z"></path>
    <path d="m294.1 153.3-51.8 51.8-24.4-24.4c-3.9-3.9-10.3-3.9-14.3 0-3.9 3.9-3.9 10.3 0 14.3l31.5 31.5c2 2 4.6 3 7.1 3 2.6 0 5.2-1 7.1-3l58.9-58.9c3.9-3.9 3.9-10.3 0-14.3-3.8-4-10.2-4-14.1 0z"></path>
</svg>