<svg width="32" height="32" viewBox="0 0 32 32" fill="none" xmlns="http://www.w3.org/2000/svg">
    <path fill-rule="evenodd" clip-rule="evenodd"
          d="M9.33331 0H5.33331C2.38781 0 0 2.38781 0 5.33331V9.33331C0 12.2789 2.38781 14.6667 5.33331 14.6666H9.33331C12.2788 14.6666 14.6666 12.2788 14.6666 9.33331V5.33331C14.6666 2.38781 12.2788 0 9.33331 0ZM9.33331 17.3333H5.33331C2.38781 17.3333 0 19.7211 0 22.6667V26.6667C0 29.6122 2.38781 32 5.33331 31.9999H9.33331C12.2788 31.9999 14.6666 29.6121 14.6666 26.6666V22.6666C14.6666 19.7211 12.2788 17.3333 9.33331 17.3333ZM22.6667 17.3333H26.6667C29.6122 17.3333 32 19.7211 32 22.6666V26.6666C32 29.6122 29.6122 32 26.6667 32H22.6667C19.7212 32 17.3334 29.6122 17.3334 26.6667V22.6667C17.3333 19.7211 19.7211 17.3333 22.6667 17.3333ZM22.6667 9.33331H18.6667C17.9303 9.33331 17.3334 8.73637 17.3334 8C17.3334 7.26362 17.9303 6.66669 18.6667 6.66669H22.6667V2.66669C22.6667 1.93031 23.2636 1.33337 24 1.33337C24.7364 1.33337 25.3333 1.93031 25.3333 2.66669V6.66669H29.3333C30.0697 6.66669 30.6666 7.26362 30.6666 8C30.6666 8.73637 30.0697 9.33331 29.3333 9.33331H25.3333V13.3333C25.3333 14.0697 24.7364 14.6666 24 14.6666C23.2636 14.6666 22.6667 14.0697 22.6667 13.3333V9.33331Z"
          fill="black"/>
</svg>
