<svg width="30" height="32" viewBox="0 0 30 32" fill="none" xmlns="http://www.w3.org/2000/svg">
    <path d="M1.13803 24C2.24091 25.9141 4.68672 26.5718 6.60085 25.4689C6.60216 25.4681 6.60341 25.4674 6.60473 25.4666L7.19804 25.1239C8.31804 26.0822 9.60542 26.8253 10.9954 27.3159V28C10.9954 30.2091 12.7862 32 14.9954 32C17.2045 32 18.9954 30.2091 18.9954 28V27.316C20.3855 26.8246 21.6729 26.0806 22.7927 25.1213L23.3887 25.4653C25.3032 26.5699 27.7508 25.9132 28.8554 23.9986C29.9599 22.0841 29.3033 19.6365 27.3887 18.5319L26.7967 18.1906C27.0632 16.7406 27.0632 15.2541 26.7967 13.8039L27.3887 13.4626C29.3033 12.3581 29.9599 9.91056 28.8554 7.99594C27.7508 6.08137 25.3033 5.42469 23.3887 6.52925L22.7954 6.87194C21.6742 5.91487 20.386 5.17313 18.9954 4.684V4C18.9954 1.79087 17.2045 0 14.9954 0C12.7862 0 10.9954 1.79087 10.9954 4V4.684C9.60523 5.17544 8.31779 5.91944 7.19804 6.87869L6.60204 6.53337C4.68741 5.42875 2.23991 6.08544 1.13535 8C0.0307823 9.91456 0.687408 12.3621 2.60204 13.4667L3.19404 13.808C2.92754 15.2581 2.92754 16.7446 3.19404 18.1947L2.60204 18.536C0.692721 19.6435 0.0382197 22.0862 1.13803 24ZM14.9954 10.6667C17.9409 10.6667 20.3287 13.0545 20.3287 16C20.3287 18.9455 17.9409 21.3333 14.9954 21.3333C12.0499 21.3333 9.66204 18.9455 9.66204 16C9.66204 13.0545 12.0499 10.6667 14.9954 10.6667Z"
          fill="black"/>
</svg>
