<svg xmlns="http://www.w3.org/2000/svg" width="16" height="16" id="medal">
    <path d="M9.36.19 7.901.993l-1.5-.72-.793 1.464-1.652.203.127 1.66-1.28 1.065L3.81 5.994l-.502 1.588 1.562.574.438 1.608.695-.157v6.204l2-2.666 2 2.666V9.443l.98.16.1-.464.246-1.162 1.53-.66-.59-1.56.927-1.38-1.338-.992.036-1.666-1.663-.11L9.36.19zm-.352 1.337.64 1.045 1.225.082-.025 1.225.986.73-.686 1.02.436 1.146-1.127.489-.256 1.197-1.209-.197-.863.87-.91-.822-1.198.266L5.7 7.395l-1.15-.422.369-1.17-.74-.979.943-.785-.094-1.223 1.22-.15.581-1.078 1.106.531 1.074-.592zM8.002 2.811a2.508 2.508 0 0 0-2.5 2.5c0 1.374 1.125 2.5 2.5 2.5s2.5-1.126 2.5-2.5c0-1.375-1.125-2.5-2.5-2.5zm0 1c.834 0 1.5.665 1.5 1.5 0 .834-.666 1.5-1.5 1.5s-1.5-.666-1.5-1.5c0-.835.666-1.5 1.5-1.5zm-1 5.654 1.166 1.053.834-.844v3.135l-1-1.332-1 1.334V9.465z"
          color="#000" font-family="sans-serif" font-weight="400" overflow="visible"
          style="line-height:normal;text-indent:0;text-align:start;text-decoration-line:none;text-decoration-style:solid;text-decoration-color:#000;text-transform:none;block-progression:tb;white-space:normal;isolation:auto;mix-blend-mode:normal;solid-color:#000;solid-opacity:1"></path>
</svg>