<svg width="37" height="38" viewBox="0 0 37 38" fill="none" xmlns="http://www.w3.org/2000/svg">
    <path fill-rule="evenodd" clip-rule="evenodd"
          d="M6.11216 32.5021H12.9995C14.2423 32.5021 15.2498 33.5096 15.2498 34.7524C15.2498 35.9951 14.2423 37.0027 12.9995 37.0027H6.11216C3.28904 36.9994 1.00135 34.7116 0.998047 31.8884V6.11218C1.00135 3.28913 3.28904 1.00134 6.11216 0.998047H12.9995C14.2423 0.998047 15.2498 2.00555 15.2498 3.24833C15.2498 4.49112 14.2423 5.49862 12.9995 5.49862H6.11216C5.77363 5.49941 5.49945 5.77366 5.49861 6.11218V31.8885C5.49938 32.227 5.77363 32.5012 6.11216 32.5021ZM29.2015 8.40749L35.0252 14.2267L35.0207 14.2268C37.6572 16.8632 37.6572 21.1376 35.0207 23.774L29.2015 29.5932C28.3377 30.3989 26.998 30.3995 26.1334 29.5947C25.2238 28.7479 25.1728 27.324 26.0196 26.4144L31.2208 21.2132L10.7492 21.2506C9.50643 21.2506 8.49893 20.2431 8.49893 19.0003C8.49893 17.7576 9.50643 16.7501 10.7492 16.7501L31.1382 16.7081L26.0196 11.5909C25.1405 10.7123 25.1402 9.28733 26.0188 8.40824C26.8975 7.52916 28.3224 7.52881 29.2015 8.40749Z"
          fill="black"/>
</svg>
